# File created by Blade
# Date/Time:  Thu Jan 22 19:01:23 2015
#---------------------------------------------------------
:version 1.10
:name HOM
:units
  mass 1.0
  length 1.000000
  angle deg
:documentation
     Acclaim Skeleton File
:root
   axis xyz
   order TX TY TZ RX RY RZ
   position 0.000000 0.000000 0.000000
   orientation 0 0 0
:bonedata
   begin
      id 1
      name RightUpLeg_dum
      direction -1.000000 0.000000 0.000000
      length 4.478084
      axis 0.0 0.0 0.0 xyz
   end
   begin
      id 2
      name LeftUpLeg_dum
      direction 1.000000 0.000000 0.000000
      length 4.478084
      axis 0.0 0.0 0.0 xyz
   end
   begin
      id 3
      name Spine_dum
      direction 0.000000 1.000000 0.000000
      length 6.068208
      axis 0.0 0.0 0.0 xyz
   end
   begin
      id 4
      name RightUpLeg
      direction 0.000000 -1.000000 0.000000
      length 16.405774
      axis 0.0 0.0 0.0 xyz
      dof rx ry rz
   end
   begin
      id 5
      name RightLeg
      direction 0.000000 -1.000000 0.000000
      length 14.644143
      axis 0.0 0.0 0.0 xyz
      dof rx ry rz
   end
   begin
      id 6
      name RightFoot
      direction 0.000000 -0.258819 0.965926
      length 5.806150
      axis 15.0 0.0 0.0 xyz
      dof rx ry rz
   end
   begin
      id 7
      name RightToeBase
      direction 0.000000 0.000000 1.000000
      length 2.952750
      axis 0.0 0.0 0.0 xyz
      dof rx ry rz
   end
   begin
      id 8
      name LeftUpLeg
      direction 0.000000 -1.000000 0.000000
      length 16.405774
      axis 0.0 0.0 0.0 xyz
      dof rx ry rz
   end
   begin
      id 9
      name LeftLeg
      direction 0.000000 -1.000000 0.000000
      length 14.644143
      axis 0.0 0.0 0.0 xyz
      dof rx ry rz
   end
   begin
      id 10
      name LeftFoot
      direction 0.000000 -0.258819 0.965926
      length 5.806150
      axis 15.0 0.0 0.0 xyz
      dof rx ry rz
   end
   begin
      id 11
      name LeftToeBase
      direction 0.000000 0.000000 1.000000
      length 2.952750
      axis 0.0 0.0 0.0 xyz
      dof rx ry rz
   end
   begin
      id 12
      name Spine
      direction 0.000000 1.000000 0.000000
      length 0.000000
      axis 0.0 0.0 0.0 xyz
      dof rx ry rz
   end
   begin
      id 13
      name Spine_dum1
      direction 0.000000 1.000000 0.000000
      length 10.013923
      axis 0.0 0.0 0.0 xyz
   end
   begin
      id 14
      name Spine_dum2
      direction 0.000000 1.000000 0.000000
      length 10.013923
      axis 0.0 0.0 0.0 xyz
   end
   begin
      id 15
      name Spine_dum3
      direction 0.000000 1.000000 0.000000
      length 15.777476
      axis 0.0 0.0 0.0 xyz
   end
   begin
      id 16
      name RightShoulder
      direction -1.000000 0.000000 0.000000
      length 7.190220
      axis 0.0 0.0 90.0 xyz
      dof rx ry rz
   end
   begin
      id 17
      name RightArm
      direction -1.000000 0.000000 0.000000
      length 10.177469
      axis 0.0 0.0 90.0 xyz
      dof rx ry rz
   end
   begin
      id 18
      name RightForeArm
      direction -1.000000 0.000000 0.000000
      length 8.392114
      axis 0.0 0.0 90.0 xyz
      dof ry rz rx
   end
   begin
      id 19
      name RightHand
      direction -1.000000 0.000000 0.000000
      length 0.000000
      axis 0.0 0.0 90.0 xyz
      dof rx ry rz
   end
   begin
      id 20
      name RightHand_dum1
      direction -1.000000 0.000000 0.000000
      length 3.937000
      axis 0.0 0.0 90.0 xyz
   end
   begin
      id 21
      name RightHand_dum2
      direction 0.000000 0.000000 0.000000
      length 0.000000
      axis 0.0 0.0 90.0 xyz
   end
   begin
      id 22
      name RightHandThumb1
      direction 0.000000 0.000000 1.000000
      length 3.937000
      axis 0.0 0.0 90.0 xyz
      dof rx rz ry
   end
   begin
      id 23
      name LeftShoulder
      direction 1.000000 0.000000 0.000000
      length 7.190220
      axis 0.0 0.0 -90.0 xyz
      dof rx ry rz
   end
   begin
      id 24
      name LeftArm
      direction 1.000000 0.000000 0.000000
      length 10.177469
      axis 0.0 0.0 -90.0 xyz
      dof rx ry rz
   end
   begin
      id 25
      name LeftForeArm
      direction 1.000000 0.000000 0.000000
      length 8.392114
      axis 0.0 0.0 -90.0 xyz
      dof ry rz rx
   end
   begin
      id 26
      name LeftHand
      direction 1.000000 0.000000 0.000000
      length 0.000000
      axis 0.0 0.0 -90.0 xyz
      dof rx ry rz
   end
   begin
      id 27
      name LeftHand_dum1
      direction 1.000000 0.000000 0.000000
      length 3.937000
      axis 0.0 0.0 -90.0 xyz
   end
   begin
      id 28
      name LeftHand_dum2
      direction 0.000000 0.000000 0.000000
      length 0.000000
      axis 0.0 0.0 -90.0 xyz
   end
   begin
      id 29
      name LeftHandThumb1
      direction 0.000000 0.000000 1.000000
      length 3.937000
      axis 0.0 0.0 -90.0 xyz
      dof rx rz ry
   end
   begin
      id 30
      name Head
      direction 0.000000 1.000000 0.000000
      length 4.527550
      axis 0.0 0.0 0.0 xyz
      dof rx ry rz
   end
:hierarchy
   begin
      root RightUpLeg_dum LeftUpLeg_dum Spine_dum
      RightUpLeg_dum RightUpLeg
      LeftUpLeg_dum LeftUpLeg
      Spine_dum Spine
      RightUpLeg RightLeg
      RightLeg RightFoot
      RightFoot RightToeBase
      LeftUpLeg LeftLeg
      LeftLeg LeftFoot
      LeftFoot LeftToeBase
      Spine Spine_dum1 Spine_dum2 Spine_dum3
      Spine_dum1 RightShoulder
      Spine_dum2 LeftShoulder
      Spine_dum3 Head
      RightShoulder RightArm
      RightArm RightForeArm
      RightForeArm RightHand
      RightHand RightHand_dum1 RightHand_dum2
      RightHand_dum2 RightHandThumb1
      LeftShoulder LeftArm
      LeftArm LeftForeArm
      LeftForeArm LeftHand
      LeftHand LeftHand_dum1 LeftHand_dum2
      LeftHand_dum2 LeftHandThumb1
   end

# File created by Blade
# Date/Time:  Thu Jan 22 19:01:15 2015
# Frame Rate: 120.000 fps
#------------------------------------------------------
:FULLY-SPECIFIED
:DEGREES
1183
root -3.259969 33.262922 -2.855962 19.065496 -2.539596 2.332521
RightUpLeg -17.883875 -6.064725 0.593382
RightLeg 1.260293 -0.000000 -0.000000
RightFoot -8.471892 -1.718556 2.177527
RightToeBase 6.697662 -0.000000 -0.000000
LeftUpLeg -17.385933 6.800395 0.174564
LeftLeg 1.867535 -0.000000 -0.000000
LeftFoot -7.239306 0.341328 -9.394198
LeftToeBase 8.434879 -0.000000 -0.000000
Spine 2.641125 -5.109652 -2.998198
RightShoulder -29.876169 -35.030573 -2.403911
RightArm 3.644998 -34.338468 91.287788
RightForeArm -6.078530 -0.000000 8.688198
RightHand 3.911936 -0.000000 46.954385
RightHandThumb1 -24.326973 -0.000000 -32.862282
LeftShoulder -31.041319 18.911550 11.227770
LeftArm -19.085286 17.887913 -105.186449
LeftForeArm 20.330455 0.000000 3.750514
LeftHand 3.720699 -0.000000 -48.348337
LeftHandThumb1 -26.253704 0.000000 33.147579
Head -18.894234 9.519773 1.536893
1184
root -3.253861 33.262393 -2.785508 18.768975 -2.555277 2.334242
RightUpLeg -17.475489 -6.173914 0.573457
RightLeg 1.281421 -0.000000 -0.000000
RightFoot -8.577209 -1.654626 2.141129
RightToeBase 6.649684 -0.000000 -0.000000
LeftUpLeg -16.988838 6.804796 0.195426
LeftLeg 1.927963 -0.000000 -0.000000
LeftFoot -7.368262 0.350301 -9.366288
LeftToeBase 8.426534 -0.000000 -0.000000
Spine 2.320677 -5.063625 -2.968831
RightShoulder -29.766403 -34.970032 -2.412654
RightArm 3.760382 -34.461091 91.289812
RightForeArm -5.957269 -0.000000 8.755851
RightHand 3.911141 -0.000000 46.820705
RightHandThumb1 -24.326973 -0.000000 -32.862282
LeftShoulder -30.935788 18.675740 11.315939
LeftArm -19.144203 17.816350 -105.284001
LeftForeArm 20.391594 -0.000000 3.732991
LeftHand 3.760345 -0.000000 -48.252221
LeftHandThumb1 -26.253704 0.000000 33.147579
Head -18.345755 9.424208 1.582455
1185
root -3.248219 33.261987 -2.720261 18.450053 -2.602794 2.315853
RightUpLeg -17.006750 -6.050543 0.489706
RightLeg 1.217811 -0.000000 -0.000000
RightFoot -8.619358 -1.734881 2.171459
RightToeBase 6.587333 -0.000000 -0.000000
LeftUpLeg -16.568379 6.795984 0.245361
LeftLeg 1.991289 -0.000000 -0.000000
LeftFoot -7.508616 0.400913 -9.298393
LeftToeBase 8.381940 -0.000000 -0.000000
Spine 2.028037 -5.048166 -2.932937
RightShoulder -29.509197 -34.869808 -2.531542
RightArm 3.822189 -34.625902 91.397231
RightForeArm -5.769479 0.000000 8.784517
RightHand 3.913379 -0.000000 46.871068
RightHandThumb1 -24.326973 -0.000000 -32.862282
LeftShoulder -30.855719 18.560407 11.336564
LeftArm -19.051742 17.545396 -105.288017
LeftForeArm 20.477770 0.000000 3.693622
LeftHand 3.850760 -0.000000 -48.228141
LeftHandThumb1 -26.253704 0.000000 33.147579
Head -17.744444 9.421278 1.621425
1186
root -3.241315 33.261021 -2.649708 18.142141 -2.651561 2.316091
RightUpLeg -16.570414 -6.063307 0.433624
RightLeg 1.204620 -0.000000 -0.000000
RightFoot -8.717147 -1.715077 2.147585
RightToeBase 6.636931 -0.000000 -0.000000
LeftUpLeg -16.146333 6.766729 0.276017
LeftLeg 2.053636 -0.000000 -0.000000
LeftFoot -7.667208 0.478454 -9.271346
LeftToeBase 8.345569 -0.000000 -0.000000
Spine 1.757940 -4.958890 -2.909193
RightShoulder -29.365738 -34.611598 -2.587226
RightArm 3.706212 -34.764089 91.507764
RightForeArm -5.543072 -0.000000 8.836028
RightHand 4.037581 -0.000000 46.749164
RightHandThumb1 -24.326973 -0.000000 -32.862282
LeftShoulder -30.766303 18.356906 11.373060
LeftArm -19.074802 17.584348 -105.350241
LeftForeArm 20.350536 -0.000000 3.729866
LeftHand 3.911341 -0.000000 -48.191727
LeftHandThumb1 -26.253704 0.000000 33.147579
Head -17.259007 9.321771 1.623648
1187
root -3.235726 33.260275 -2.583101 17.879569 -2.664715 2.313059
RightUpLeg -16.187978 -6.169112 0.411592
RightLeg 1.199705 -0.000000 -0.000000
RightFoot -8.801230 -1.608327 2.149164
RightToeBase 6.608565 -0.000000 -0.000000
LeftUpLeg -15.777195 6.745931 0.310080
LeftLeg 2.092674 -0.000000 -0.000000
LeftFoot -7.773176 0.499430 -9.185677
LeftToeBase 8.296796 -0.000000 -0.000000
Spine 1.448953 -4.895363 -2.877297
RightShoulder -29.410739 -34.691487 -2.430496
RightArm 4.076901 -35.010706 91.352717
RightForeArm -5.358482 -0.000000 8.893011
RightHand 3.983878 -0.000000 46.797087
RightHandThumb1 -24.326973 -0.000000 -32.862282
LeftShoulder -30.761628 18.300880 11.355820
LeftArm -18.881759 17.544353 -105.323462
LeftForeArm 20.395572 -0.000000 3.713647
LeftHand 3.865777 -0.000000 -48.140684
LeftHandThumb1 -26.253704 0.000000 33.147579
Head -16.793907 9.217654 1.649093
1188
root -3.231865 33.259029 -2.517317 17.608050 -2.677666 2.305020
RightUpLeg -15.784165 -6.162313 0.367613
RightLeg 1.173581 -0.000000 -0.000000
RightFoot -8.878495 -1.629853 2.149428
RightToeBase 6.579852 -0.000000 -0.000000
LeftUpLeg -15.403024 6.726544 0.347122
LeftLeg 2.136347 -0.000000 -0.000000
LeftFoot -7.910858 0.544297 -9.123390
LeftToeBase 8.339077 -0.000000 -0.000000
Spine 1.172355 -4.818893 -2.845138
RightShoulder -29.328979 -34.549709 -2.415511
RightArm 4.111956 -35.187732 91.383933
RightForeArm -5.296738 -0.000000 8.998077
RightHand 3.858180 -0.000000 46.841697
RightHandThumb1 -24.326973 -0.000000 -32.862282
LeftShoulder -30.724566 18.190706 11.374712
LeftArm -18.719876 17.277605 -105.240214
LeftForeArm 20.654460 -0.000000 3.665011
LeftHand 3.966143 0.000000 -48.157533
LeftHandThumb1 -26.253704 0.000000 33.147579
Head -16.360284 9.118087 1.652726
